o PvP_Death_NM_Wall04_GuardrailMob
v 155.5 0 -138.034958
vn -0.707107 5.0659e-08 0.707107
v 235.500015 0 -58.034958
vn -0.707107 5.0659e-08 0.707107
v 235.5 1064.92395 -58.035049
vn -0.707107 5.0659e-08 0.707107
v -156.121948 0 138.378021
vn 0.707107 -3.03954e-08 -0.707107
v -236.121964 0 58.378021
vn 0.707107 -3.03954e-08 -0.707107
v -236.121964 1064.92395 58.377975
vn 0.707107 -3.03954e-08 -0.707107
v -156.121948 1064.92395 138.377975
vn 0.707107 -3.03954e-08 -0.707107
v 235.500015 0 58.378052
vn -0.707107 -5.0659e-08 -0.707107
v 155.500031 0 138.378052
vn -0.707107 -5.0659e-08 -0.707107
v 155.5 1064.92395 138.378006
vn -0.707107 -5.0659e-08 -0.707107
v 235.500015 0 -58.034958
vn -1 -1.43285e-08 0
v 235.500015 0 58.378052
vn -1 -1.43285e-08 0
v 235.5 1064.92395 58.378006
vn -1 -1.43285e-08 0
v 155.5 1064.92395 138.378006
vn -0.707107 -4.05272e-08 -0.707107
v 235.5 1064.92395 58.378006
vn -0.707107 -4.05272e-08 -0.707107
v 235.500015 0 58.378052
vn -0.707107 -4.05272e-08 -0.707107
v 235.5 1064.92395 -58.035049
vn -0.707107 6.07908e-08 0.707107
v 155.5 1064.92395 -138.035049
vn -0.707107 6.07908e-08 0.707107
v 155.5 0 -138.034958
vn -0.707107 6.07908e-08 0.707107
v 235.5 1064.92395 58.378006
vn -1 -1.43285e-08 -0
v 235.5 1064.92395 -58.035049
vn -1 -1.43285e-08 -0
v 235.500015 0 -58.034958
vn -1 -1.43285e-08 -0
v -156.122009 1064.92395 -138.035049
vn -0 8.59711e-08 1
v -156.122009 0 -138.034958
vn -0 8.59711e-08 1
v 155.5 0 -138.034958
vn -0 8.59711e-08 1
v 155.5 1064.92395 -138.035049
vn -0 8.59711e-08 1
v 155.5 1064.92395 138.378006
vn 9.79314e-08 -4.29856e-08 -1
v 155.500031 0 138.378052
vn 9.79314e-08 -4.29856e-08 -1
v -156.121948 0 138.378021
vn 9.79314e-08 -4.29856e-08 -1
v -156.121948 1064.92395 138.377975
vn 9.79314e-08 -4.29856e-08 -1
v -236.121994 0 -58.034958
vn 0.707107 6.07908e-08 0.707107
v -156.122009 0 -138.034958
vn 0.707107 6.07908e-08 0.707107
v -156.122009 1064.92395 -138.035049
vn 0.707107 6.07908e-08 0.707107
v -236.121994 1064.92395 -58.035049
vn 0.707107 6.07908e-08 0.707107
v -236.121964 0 58.378021
vn 1 -1.6903e-14 -2.62149e-07
v -236.121994 0 -58.034958
vn 1 -2.25373e-14 -2.62149e-07
v -236.121994 1064.92395 -58.035049
vn 1 -1.6903e-14 -2.62149e-07
v -236.121964 1064.92395 58.377975
vn 1 -1.12686e-14 -2.62149e-07
v -236.121964 1064.92395 58.377975
vn -0 -1 -0
v -236.121994 1064.92395 -58.035049
vn -0 -1 -0
v -156.122009 1064.92395 -138.035049
vn -0 -1 -0
v -156.121948 1064.92395 138.377975
vn -0 -1 -0
v 155.5 1064.92395 -138.035049
vn -0 -1 -0
v 155.5 1064.92395 138.378006
vn -0 -1 -0
v 235.5 1064.92395 58.378006
vn -0 -1 -0
v 235.5 1064.92395 -58.035049
vn -0 -1 -0
v 235.500015 0 58.378052
vn -0 1 -0
v 235.500015 0 -58.034958
vn -0 1 0
v 155.5 0 -138.034958
vn -0 1 -0
v 155.500031 0 138.378052
vn -0 1 -0
v -156.121948 0 138.378021
vn -0 1 -0
v -156.122009 0 -138.034958
vn -0 1 -0
v -236.121994 0 -58.034958
vn -0 1 -0
v -236.121964 0 58.378021
vn -0 1 -0
f 1//1 2//2 3//3
f 4//4 5//5 6//6
f 6//6 7//7 4//4
f 8//8 9//9 10//10
f 11//11 12//12 13//13
f 14//14 15//15 16//16
f 17//17 18//18 19//19
f 20//20 21//21 22//22
f 23//23 24//24 25//25
f 25//25 26//26 23//23
f 27//27 28//28 29//29
f 29//29 30//30 27//27
f 31//31 32//32 33//33
f 33//33 34//34 31//31
f 35//35 36//36 37//37
f 37//37 38//38 35//35
f 39//39 40//40 41//41
f 41//41 42//42 39//39
f 42//42 41//41 43//43
f 43//43 44//44 42//42
f 45//45 44//44 43//43
f 43//43 46//46 45//45
f 47//47 48//48 49//49
f 49//49 50//50 47//47
f 51//51 50//50 49//49
f 49//49 52//52 51//51
f 51//51 52//52 53//53
f 53//53 54//54 51//51

o PvP_Death_NM_Wall04_AIobj
v 235.500214 0 -138.035446
vn -1 -2.8657e-08 2.20811e-07
v 235.500275 0 138.378052
vn -1 -2.8657e-08 2.20811e-07
v 235.500244 1064.92395 138.377991
vn -1 -2.8657e-08 2.20811e-07
v 235.500244 1064.92395 138.377991
vn -1 1.10736e-14 1.10406e-07
v 235.500214 1064.92395 -138.035553
vn -1 1.10736e-14 1.10406e-07
v 235.500214 0 -138.035446
vn -1 1.10736e-14 1.10406e-07
v -236.12207 0 138.378021
vn 1 -0 -0
v -236.12207 0 -138.035461
vn 1 -0 -0
v -236.12207 1064.92395 -138.035568
vn 1 -0 -0
v -236.12207 1064.92395 138.37796
vn 1 -0 -0
v -236.12207 0 138.378021
vn 6.47077e-08 -5.73141e-08 -1
v -236.12207 1064.92395 138.37796
vn 6.47077e-08 -5.73141e-08 -1
v 235.500244 1064.92395 138.377991
vn 6.47077e-08 -5.73141e-08 -1
v 235.500275 0 138.378052
vn 6.47077e-08 -5.73141e-08 -1
v 235.500214 0 -138.035446
vn -3.23538e-08 1.003e-07 1
v 235.500214 1064.92395 -138.035553
vn -3.23538e-08 1.003e-07 1
v -236.12207 1064.92395 -138.035568
vn -3.23538e-08 1.003e-07 1
v -236.12207 0 -138.035461
vn -3.23538e-08 1.003e-07 1
v -236.12207 0 138.378021
vn -0 1 -0
v 235.500275 0 138.378052
vn -0 1 -0
v 235.500214 0 -138.035446
vn -0 1 -0
v -236.12207 0 -138.035461
vn -0 1 -0
v 235.500214 1064.92395 -138.035553
vn -0 -1 -0
v 235.500244 1064.92395 138.377991
vn -0 -1 -0
v -236.12207 1064.92395 138.37796
vn -0 -1 -0
v -236.12207 1064.92395 -138.035568
vn -0 -1 -0
f 55//55 56//56 57//57
f 58//58 59//59 60//60
f 61//61 62//62 63//63
f 63//63 64//64 61//61
f 65//65 66//66 67//67
f 67//67 68//68 65//65
f 69//69 70//70 71//71
f 71//71 72//72 69//69
f 73//73 74//74 75//75
f 75//75 76//76 73//73
f 77//77 78//78 79//79
f 79//79 80//80 77//77

o PvP_Death_NM_Wall04_Collision
v 128.458221 349.967133 113.000122
vn -0.030337 -1.33387e-07 -0.99954
v 128.458252 -1.52588e-05 113.000168
vn -0.099021 -1.38792e-07 -0.995085
v -129.24649 -1.52588e-05 113.000221
vn 0.030336 -1.30742e-07 -0.99954
v -129.246521 349.966949 -113
vn 0.028268 -3.94403e-08 0.9996
v -129.247009 -1.52588e-05 -113
vn 0.092325 -3.10737e-08 0.995729
v 128.458252 -1.52588e-05 -113
vn -0.028268 -2.46503e-09 0.9996
v 221.874451 -1.52588e-05 -0.575795
vn -0.966162 -7.58521e-08 -0.257937
v 206.970322 -1.52588e-05 55.251045
vn -0.966162 -7.58521e-08 -0.257937
v 206.970306 350.021393 55.250999
vn -0.966162 -7.58521e-08 -0.257937
v 206.970245 350.021149 -56.402725
vn -0.966161 2.82077e-08 0.257938
v 206.970276 -1.52588e-05 -56.402573
vn -0.966161 2.82077e-08 0.257938
v 221.874451 -1.52588e-05 -0.575795
vn -0.966161 2.82077e-08 0.257938
v 206.970306 350.021393 55.250999
vn -0.966162 -1.57322e-07 -0.257936
v 221.87442 350.030487 -0.575894
vn -0.966162 -1.57322e-07 -0.257936
v 221.874451 -1.52588e-05 -0.575795
vn -0.966162 -1.57322e-07 -0.257936
v 221.874451 -1.52588e-05 -0.575795
vn -0.966162 -1.11479e-08 0.257938
v 221.87442 350.030487 -0.575894
vn -0.966162 -1.11479e-08 0.257938
v 206.970245 350.021149 -56.402725
vn -0.966162 -1.11479e-08 0.257938
v -207.758377 -1.52588e-05 -56.402588
vn -0 1 -0
v -222.662598 -1.52588e-05 -0.575795
vn -0 1 -0
v -207.758499 -1.52588e-05 55.251106
vn -0 1 -0
v -170.039413 -1.52588e-05 -97.270782
vn -0 1 -0
v -170.03949 -1.52588e-05 96.11927
vn -0 1 -0
v -129.24649 -1.52588e-05 113.000221
vn -0 1 -0
v -129.247009 -1.52588e-05 -113
vn -0 1 -0
v 128.458252 -1.52588e-05 113.000168
vn -0 1 -0
v 128.458252 -1.52588e-05 -113
vn -0 1 -0
v 169.251312 -1.52588e-05 96.11924
vn -0 1 -0
v 169.251297 -1.52588e-05 -97.270798
vn -0 1 -0
v 206.970322 -1.52588e-05 55.251045
vn -0 1 -0
v 206.970276 -1.52588e-05 -56.402573
vn -0 1 -0
v 221.874451 -1.52588e-05 -0.575795
vn -0 1 0
v 206.970306 350.021393 55.250999
vn -0.734852 -1.36757e-07 -0.678227
v 206.970322 -1.52588e-05 55.251045
vn -0.734853 -1.20735e-07 -0.678227
v 169.251312 -1.52588e-05 96.11924
vn -0.646968 -1.4445e-07 -0.762517
v 169.251282 349.99649 96.119194
vn -0.530331 -1.57129e-07 -0.84779
v -129.24649 349.967194 113.000175
vn 0.099021 -1.30158e-07 -0.995085
v -170.03949 -1.52588e-05 96.11927
vn 0.530332 -1.10886e-07 -0.84779
v -170.03949 349.996552 96.119225
vn 0.646968 -9.97279e-08 -0.762517
v -207.758499 -1.52588e-05 55.251106
vn 0.734852 -8.87028e-08 -0.678227
v -207.758499 350.021454 55.25106
vn 0.734852 -8.86996e-08 -0.678227
v -207.758499 350.021454 55.25106
vn 0.966162 -4.21661e-08 -0.257936
v -207.758499 -1.52588e-05 55.251106
vn 0.966162 -3.37333e-08 -0.257936
v -222.662598 -1.52588e-05 -0.575795
vn 0.996064 -1.15921e-08 -0.088637
v -222.662598 350.030548 -0.575864
vn 0.996064 2.31848e-08 0.08864
v -207.758377 -1.52588e-05 -56.402588
vn 0.966161 5.90331e-08 0.257938
v -207.758377 350.02121 -56.402679
vn 0.966161 6.74672e-08 0.257938
v 206.970276 -1.52588e-05 -56.402573
vn -0.734853 2.4023e-07 0.678226
v 206.970245 350.021149 -56.402725
vn -0.734853 2.31595e-07 0.678226
v 169.251282 349.996246 -97.270943
vn -0.642543 2.83014e-07 0.76625
v 169.251297 -1.52588e-05 -97.270798
vn -0.518412 2.05562e-07 0.855131
v 128.458221 349.966888 -113
vn -0.092325 4.35491e-08 0.995729
v -170.039429 349.996307 -97.270874
vn 0.584781 5.64522e-08 0.811191
v -170.039413 -1.52588e-05 -97.270782
vn 0.584776 2.37688e-07 0.811195
v -207.758377 -1.52588e-05 -56.402588
vn 0.734853 1.93424e-07 0.678226
v -207.758377 350.02121 -56.402679
vn 0.734853 1.77399e-07 0.678226
v 206.970245 350.021149 -56.402725
vn 0.000655 -1 1.67456e-06
v 221.87442 350.030487 -0.575894
vn 0.000618 -1 2.18624e-06
v 206.970306 350.021393 55.250999
vn 0.00065 -1 2.18623e-06
v 169.251282 349.99649 96.119194
vn 0.000685 -1 1.46302e-06
v 169.251282 349.996246 -97.270943
vn 0.000702 -1 1.19361e-06
v 128.458221 349.967133 113.000122
vn 9.19608e-05 -1 1.09102e-06
v 128.458221 349.966888 -113
vn 9.80908e-05 -1 1.08027e-06
v -129.246521 349.966949 -113
vn -9.23738e-05 -1 1.09102e-06
v -129.24649 349.967194 113.000175
vn -9.86178e-05 -1 1.08028e-06
v -170.03949 349.996552 96.119225
vn -0.000702 -1 1.19351e-06
v -170.039429 349.996307 -97.270874
vn -0.000684 -1 1.46277e-06
v -207.758499 350.021454 55.25106
vn -0.000655 -1 1.67429e-06
v -207.758377 350.02121 -56.402679
vn -0.000647 -1 2.18588e-06
v -222.662598 350.030548 -0.575864
vn -0.000618 -1 2.18591e-06
f 81//81 82//82 83//83
f 84//84 85//85 86//86
f 87//87 88//88 89//89
f 90//90 91//91 92//92
f 93//93 94//94 95//95
f 96//96 97//97 98//98
f 99//99 100//100 101//101
f 102//102 99//99 101//101
f 101//101 103//103 102//102
f 102//102 103//103 104//104
f 104//104 105//105 102//102
f 105//105 104//104 106//106
f 106//106 107//107 105//105
f 107//107 106//106 108//108
f 108//108 109//109 107//107
f 109//109 108//108 110//110
f 110//110 111//111 109//109
f 110//110 112//112 111//111
f 113//113 114//114 115//115
f 115//115 116//116 113//113
f 116//116 115//115 82//82
f 82//82 81//81 116//116
f 83//83 117//117 81//81
f 117//117 83//83 118//118
f 118//118 119//119 117//117
f 119//119 118//118 120//120
f 120//120 121//121 119//119
f 122//122 123//123 124//124
f 124//124 125//125 122//122
f 125//125 124//124 126//126
f 126//126 127//127 125//125
f 128//128 129//129 130//130
f 130//130 131//131 128//128
f 131//131 130//130 132//132
f 132//132 86//86 131//131
f 86//86 132//132 84//84
f 85//85 84//84 133//133
f 133//133 134//134 85//85
f 135//135 134//134 133//133
f 133//133 136//136 135//135
f 137//137 138//138 139//139
f 137//137 139//139 140//140
f 140//140 141//141 137//137
f 141//141 140//140 142//142
f 142//142 143//143 141//141
f 144//144 143//143 142//142
f 142//142 145//145 144//144
f 144//144 145//145 146//146
f 146//146 147//147 144//144
f 147//147 146//146 148//148
f 148//148 149//149 147//147
f 149//149 148//148 150//150

